<svg xmlns="http://www.w3.org/2000/svg" viewBox="0 0 512 512">
  <rect width="512" height="512" rx="77" ry="77" fill="#0ea5e9"/>
  <path fill="#ffffff" fill-rule="evenodd" d="
    M 152 180
    H 212
    V 220
    C 232 192 268 178 300 178
    C 360 178 408 226 408 286
    C 408 346 360 394 300 394
    C 268 394 232 380 212 352
    V 432
    H 152
    Z
    M 300 234
    C 271 234 248 257 248 286
    C 248 315 271 338 300 338
    C 329 338 352 315 352 286
    C 352 257 329 234 300 234
    Z
  "/>
</svg>